<?xml version="1.0" encoding="utf-8"?>
<!-- Generator: Adobe Illustrator 16.0.4, SVG Export Plug-In . SVG Version: 6.00 Build 0)  -->
<!DOCTYPE svg PUBLIC "-//W3C//DTD SVG 1.1//EN" "http://www.w3.org/Graphics/SVG/1.1/DTD/svg11.dtd">
<svg version="1.1" id="Layer_1" xmlns="http://www.w3.org/2000/svg" xmlns:xlink="http://www.w3.org/1999/xlink" x="0px" y="0px"
	 width="100px" height="80px" viewBox="0 0 100 80" enable-background="new 0 0 100 80" xml:space="preserve">
<polygon fill="#FFFFFF" points="34.078,32.868 26.004,32.868 26.004,24.794 18.95,24.794 18.95,32.868 10.876,32.868 10.876,39.922 
	18.95,39.922 18.95,47.994 26.004,47.994 26.004,39.922 34.078,39.922 "/>
<path fill="#FFFFFF" d="M50.357,59.238L39.264,48.153c2.335-3.327,3.716-7.375,3.716-11.755c0-11.32-9.146-20.49-20.486-20.49
	c-11.285,0-20.465,9.17-20.465,20.49s9.18,20.482,20.465,20.482c4.395,0,8.45-1.388,11.781-3.732l11.092,11.084L50.357,59.238z
	 M7.293,36.397c0-8.41,6.819-15.222,15.203-15.222c8.424,0,15.219,6.812,15.219,15.222c0,8.409-6.794,15.216-15.219,15.216
	C14.112,51.613,7.293,44.807,7.293,36.397z"/>
<g>
	<path fill="#FFFFFF" d="M55.511,33.537h0.334c0.913,0,1.733,0.346,2.46,1.043c0.729,0.696,1.093,1.563,1.093,2.604
		c0,1.024-0.364,1.868-1.093,2.53c-0.727,0.665-1.628,0.997-2.7,0.997c-1.167,0-2.139-0.467-2.915-1.402
		c-0.775-0.938-1.162-2.27-1.162-3.997c0-1.584,0.339-3.067,1.02-4.451c0.679-1.385,1.511-2.48,2.494-3.287
		c0.985-0.81,1.86-1.213,2.629-1.213c0.511,0,0.912,0.151,1.198,0.456c0.289,0.306,0.434,0.697,0.434,1.176
		c0,0.704-0.312,1.225-0.938,1.562c-0.846,0.463-1.52,1.006-2.015,1.632C55.854,31.809,55.572,32.593,55.511,33.537z M66.116,33.537
		h0.312c0.896,0,1.707,0.346,2.437,1.043c0.727,0.696,1.091,1.563,1.091,2.604c0,1.009-0.364,1.856-1.091,2.544
		c-0.729,0.688-1.628,1.032-2.7,1.032c-1.183,0-2.159-0.479-2.927-1.439c-0.769-0.961-1.153-2.297-1.153-4.009
		c0-1.231,0.199-2.391,0.601-3.479c0.398-1.087,0.917-2.035,1.547-2.843c0.633-0.809,1.313-1.448,2.04-1.92
		c0.729-0.473,1.38-0.709,1.955-0.709c0.529,0,0.934,0.149,1.213,0.445c0.279,0.295,0.419,0.691,0.419,1.187
		c0,0.72-0.312,1.24-0.935,1.562c-0.88,0.495-1.543,1.043-1.992,1.644C66.485,31.798,66.212,32.577,66.116,33.537z"/>
	<path fill="#FFFFFF" d="M83.478,33.631h-0.359c-0.896,0-1.708-0.362-2.435-1.091c-0.729-0.727-1.094-1.588-1.094-2.578
		c0-1.025,0.365-1.882,1.094-2.569c0.727-0.688,1.618-1.032,2.675-1.032c1.198,0,2.18,0.481,2.938,1.439
		c0.761,0.961,1.142,2.297,1.142,4.009c0,1.568-0.333,3.044-0.997,4.427c-0.663,1.384-1.479,2.484-2.448,3.3
		c-0.967,0.816-1.843,1.225-2.627,1.225c-0.495,0-0.9-0.156-1.212-0.468s-0.468-0.692-0.468-1.142c0-0.72,0.328-1.247,0.983-1.584
		c0.848-0.495,1.513-1.038,1.991-1.63C83.143,35.343,83.413,34.575,83.478,33.631z M94.037,33.631h-0.289
		c-0.912,0-1.739-0.359-2.482-1.079c-0.744-0.72-1.116-1.584-1.116-2.59c0-1.009,0.367-1.861,1.103-2.556
		c0.736-0.697,1.632-1.046,2.688-1.046c1.215,0,2.201,0.473,2.952,1.417c0.752,0.944,1.128,2.287,1.128,4.031
		c0,1.616-0.332,3.108-0.997,4.475c-0.662,1.368-1.479,2.457-2.447,3.264c-0.968,0.81-1.851,1.213-2.65,1.213
		c-0.513,0-0.921-0.151-1.224-0.456c-0.305-0.306-0.456-0.688-0.456-1.153c0-0.704,0.328-1.23,0.983-1.584
		c0.912-0.527,1.591-1.075,2.04-1.644C93.716,35.357,93.973,34.592,94.037,33.631z"/>
</g>
</svg>
