<?xml version="1.0" encoding="utf-8"?>
<!-- Generator: Adobe Illustrator 16.0.4, SVG Export Plug-In . SVG Version: 6.00 Build 0)  -->
<!DOCTYPE svg PUBLIC "-//W3C//DTD SVG 1.1//EN" "http://www.w3.org/Graphics/SVG/1.1/DTD/svg11.dtd">
<svg version="1.1" id="Layer_1" xmlns="http://www.w3.org/2000/svg" xmlns:xlink="http://www.w3.org/1999/xlink" x="0px" y="0px"
	 width="100px" height="80px" viewBox="0 0 100 80" enable-background="new 0 0 100 80" xml:space="preserve">
<path fill="#FFFFFF" d="M94.262,61.235c0.205-3.178,0.061-6.725-0.145-8.263s-2.521-4.134-3.342-4.749s-9.432-4.538-10.2-5.461
	s-0.22-3.774-0.22-3.774l1.791-5.065l1.585-1.435l0.651-2.215l-0.201-2.471l-0.58-0.237c0,0-0.028-0.19-0.551-4.468
	c-0.924-7.567-3.439-7.09-5.9-7.09l-0.312-0.455H76.4v-0.5l-2.031,0.812c-1.438,0.143-5.701-0.335-6.625,7.232
	c-0.514,4.207-0.551,4.468-0.551,4.468l-0.605,0.237l-0.176,2.471l0.651,2.215l1.585,1.435l1.791,5.065c0,0,0.549,2.852-0.22,3.774
	s-9.38,4.846-10.2,5.461s-3.137,3.211-3.342,4.749s-0.35,5.085-0.145,8.263H94.262z"/>
<polygon fill="#FFFFFF" points="38.078,26.227 30.004,26.227 30.004,18.154 22.95,18.154 22.95,26.227 14.876,26.227 14.876,33.282 
	22.95,33.282 22.95,41.354 30.004,41.354 30.004,33.282 38.078,33.282 "/>
<g>
	<path fill="#FFFFFF" d="M26.493,9.159c-11.359,0-20.558,9.204-20.558,20.558c0,2.117,0.32,4.171,0.916,6.091l0.364,1.062
		c0.354,0.955,0.781,1.884,1.27,2.775l18.008,30.093l18.015-30.105c0.48-0.88,0.906-1.796,1.26-2.751l0.371-1.075
		c0.594-1.92,0.912-3.974,0.912-6.091C47.051,18.363,37.85,9.159,26.493,9.159z M26.53,45.072c-8.457,0-15.315-6.857-15.315-15.318
		c0-8.458,6.858-15.315,15.315-15.315c8.459,0,15.319,6.857,15.319,15.315C41.85,38.215,34.989,45.072,26.53,45.072z"/>
</g>
</svg>
