<?xml version="1.0" encoding="utf-8"?>
<!-- Generator: Adobe Illustrator 16.0.4, SVG Export Plug-In . SVG Version: 6.00 Build 0)  -->
<!DOCTYPE svg PUBLIC "-//W3C//DTD SVG 1.1//EN" "http://www.w3.org/Graphics/SVG/1.1/DTD/svg11.dtd">
<svg version="1.1" id="Layer_1" xmlns="http://www.w3.org/2000/svg" xmlns:xlink="http://www.w3.org/1999/xlink" x="0px" y="0px"
	 width="100px" height="80px" viewBox="0 0 100 80" enable-background="new 0 0 100 80" xml:space="preserve">
<g>
	<path fill="#FFFFFF" d="M26.493,9.85c-11.359,0-20.558,9.204-20.558,20.558c0,2.117,0.32,4.171,0.916,6.091l0.364,1.062
		c0.354,0.955,0.781,1.884,1.27,2.775l18.008,30.097l18.015-30.109c0.48-0.88,0.906-1.796,1.26-2.751l0.371-1.075
		c0.594-1.92,0.912-3.974,0.912-6.091C47.051,19.054,37.85,9.85,26.493,9.85z M26.53,45.765c-8.457,0-15.315-6.858-15.315-15.319
		c0-8.458,6.858-15.315,15.315-15.315c8.459,0,15.319,6.857,15.319,15.315C41.85,38.907,34.989,45.765,26.53,45.765z"/>
	<circle fill="#FFFFFF" cx="26.477" cy="30.446" r="9.778"/>
</g>
<path fill="#FFFFFF" d="M90.152,21.495h-29.66c-2.209,0-4-1.791-4-4s1.791-4,4-4h29.66c2.209,0,4,1.791,4,4
	S92.361,21.495,90.152,21.495z"/>
<path fill="#FFFFFF" d="M90.152,35.721h-29.66c-2.209,0-4-1.791-4-4s1.791-4,4-4h29.66c2.209,0,4,1.791,4,4
	S92.361,35.721,90.152,35.721z"/>
<path fill="#FFFFFF" d="M90.152,49.947h-29.66c-2.209,0-4-1.791-4-4s1.791-4,4-4h29.66c2.209,0,4,1.791,4,4
	S92.361,49.947,90.152,49.947z"/>
</svg>
